<svg width="97" height="96" viewBox="0 0 97 96" fill="none" xmlns="http://www.w3.org/2000/svg">
<g id="check_circle">
<mask id="mask0_400_6792" style="mask-type:alpha" maskUnits="userSpaceOnUse" x="0" y="0" width="97" height="96">
<rect id="Bounding box" x="0.5" width="96" height="96" fill="#D9D9D9"/>
</mask>
<g mask="url(#mask0_400_6792)">
<g id="check_circle_2">
<path d="M42.9 66.4L71.1 38.2L65.5 32.6L42.9 55.2L31.5 43.8L25.9 49.4L42.9 66.4ZM48.5 88C42.9667 88 37.7667 86.95 32.9 84.85C28.0333 82.75 23.8 79.9 20.2 76.3C16.6 72.7 13.75 68.4667 11.65 63.6C9.55 58.7333 8.5 53.5333 8.5 48C8.5 42.4667 9.55 37.2667 11.65 32.4C13.75 27.5333 16.6 23.3 20.2 19.7C23.8 16.1 28.0333 13.25 32.9 11.15C37.7667 9.05 42.9667 8 48.5 8C54.0333 8 59.2333 9.05 64.1 11.15C68.9667 13.25 73.2 16.1 76.8 19.7C80.4 23.3 83.25 27.5333 85.35 32.4C87.45 37.2667 88.5 42.4667 88.5 48C88.5 53.5333 87.45 58.7333 85.35 63.6C83.25 68.4667 80.4 72.7 76.8 76.3C73.2 79.9 68.9667 82.75 64.1 84.85C59.2333 86.95 54.0333 88 48.5 88ZM48.5 80C57.4333 80 65 76.9 71.2 70.7C77.4 64.5 80.5 56.9333 80.5 48C80.5 39.0667 77.4 31.5 71.2 25.3C65 19.1 57.4333 16 48.5 16C39.5667 16 32 19.1 25.8 25.3C19.6 31.5 16.5 39.0667 16.5 48C16.5 56.9333 19.6 64.5 25.8 70.7C32 76.9 39.5667 80 48.5 80Z" fill="#28C76F"/>
<path d="M42.9 66.4L71.1 38.2L65.5 32.6L42.9 55.2L31.5 43.8L25.9 49.4L42.9 66.4ZM48.5 88C42.9667 88 37.7667 86.95 32.9 84.85C28.0333 82.75 23.8 79.9 20.2 76.3C16.6 72.7 13.75 68.4667 11.65 63.6C9.55 58.7333 8.5 53.5333 8.5 48C8.5 42.4667 9.55 37.2667 11.65 32.4C13.75 27.5333 16.6 23.3 20.2 19.7C23.8 16.1 28.0333 13.25 32.9 11.15C37.7667 9.05 42.9667 8 48.5 8C54.0333 8 59.2333 9.05 64.1 11.15C68.9667 13.25 73.2 16.1 76.8 19.7C80.4 23.3 83.25 27.5333 85.35 32.4C87.45 37.2667 88.5 42.4667 88.5 48C88.5 53.5333 87.45 58.7333 85.35 63.6C83.25 68.4667 80.4 72.7 76.8 76.3C73.2 79.9 68.9667 82.75 64.1 84.85C59.2333 86.95 54.0333 88 48.5 88ZM48.5 80C57.4333 80 65 76.9 71.2 70.7C77.4 64.5 80.5 56.9333 80.5 48C80.5 39.0667 77.4 31.5 71.2 25.3C65 19.1 57.4333 16 48.5 16C39.5667 16 32 19.1 25.8 25.3C19.6 31.5 16.5 39.0667 16.5 48C16.5 56.9333 19.6 64.5 25.8 70.7C32 76.9 39.5667 80 48.5 80Z" fill="white" fill-opacity="0.2"/>
</g>
</g>
</g>
</svg>
